<svg id="character" height="512" viewBox="0 0 512 512" width="512" xmlns="http://www.w3.org/2000/svg"><g><path d="m362.765 426.569-189.347-26.735-64.17-185.492 271.686-21.909z" fill="#ff96c0"/><ellipse cx="267.344" cy="465.542" fill="#d5e9ed" rx="131.289" ry="14.586"/><g><g><path d="m287.134 255.765c2.57 3.372-7.965 13.303-23.698 13.303s-29.123-3.825-29.123-8.064 13.44-6.038 29.123-7.288c15.902-1.267 22.05-.113 23.698 2.049z" fill="#d4bfae"/><path d="m283.838 257.155c2.247 2.948-6.963 11.631-20.719 11.631s-25.462-3.344-25.462-7.051 11.75-5.279 25.462-6.372c13.903-1.107 19.278-.098 20.719 1.792z" fill="#a89a92"/></g><g><path d="m287.134 255.765c-14.114 12.805-30.412 14.26-52.821 5.238-8.731 15.425-21.245 38.125-27.066 91.674 17.274 17.289 36.736 28.176 51.512 36.087 15.279 3.42 23.791 2.983 36.451-2.255 11.838-9.935 25.974-29.903 32.231-48.383 0-23.428-25.465-64.899-40.307-82.361z" fill="#e7dfd1"/><path d="m207.247 352.677c14.682 14.694 30.934 24.754 44.556 32.303 7.793-42.78-1.107-85.014-25.236-109.31-7.292 15.381-15.081 38.009-19.32 77.007z" fill="#d4bfae"/><path d="m220.977 318.798c5.526-25.308 7.236-39.203 6.522-45.063-7.552 15.408-15.832 38.276-20.252 78.942 17.274 17.289 36.736 28.176 51.512 36.087 4.517 1.011 8.435 1.676 12.051 1.988-6.767-45.239-32.086-63.863-49.833-71.954z" fill="#baa497"/><path d="m304.774 280.631c-.001 0-.001-.001-.002-.001-9.477 32.759-2.367 57.203 5.237 89.545.053-.022.108-.051.161-.074 7.11-9.589 13.57-21.042 17.271-31.975 0-15.36-10.946-38.475-22.667-57.495z" fill="#d4bfae"/><path d="m226.955 274.857c-.256.533-.513 1.07-.77 1.621 23.45 23.413 32.091 60.909 24.795 108.044.546.304 1.093.609 1.631.906 4.199-26.649 3.365-50.327-2.53-70.518-4.64-15.898-12.531-29.507-23.126-40.053z" fill="#a89a92"/><path d="m295.182 266.181c-1.902 13.391-8.382 23.834-17.442 26.995-12.857 4.488-29.045-5.385-45.857-27.834-.304.552-.611 1.112-.92 1.685 17.714 23.439 31.552 28.911 40.599 28.911 2.679 0 4.938-.479 6.754-1.114 9.253-3.228 15.983-13.439 18.304-26.616-.484-.689-.962-1.363-1.438-2.027z" fill="#a89a92"/><path d="m305.949 282.564c.919 13.446 5.106 34.156 10.08 55.615-6.301 6.213-19.389 29.372-23.187 49.271.775-.295 1.563-.607 2.368-.941 11.838-9.935 25.974-29.903 32.231-48.383 0-14.845-10.225-36.928-21.492-55.562z" fill="#baa497"/><path d="m310.828 369.201c-8.666-28.777-13.653-61.09-5.491-87.643-.405-.663-.81-1.32-1.217-1.973-9.042 27.599-3.727 61.474 5.412 91.364.435-.576.867-1.159 1.296-1.748z" fill="#a89a92"/></g><g><path d="m168.994 97.865c-1.091 7.312-5.893 15.132-16.079 14.042-15.213-17.395-25.5-37.34-32.158-53.986.491-3.547 3.601-7.257 7.044-8.019 14.409 24.851 29.079 38.469 41.193 47.963z" fill="#303242"/><path d="m343.392 189.295c-50.202-7.396-110.445-1.721-173.088 14.117-21.609-5.361-42.126-22.823-54.931-48.433 51.803-66.063 163.703-117.866 265.562-17.171-5.239 23.164-21.61 40.817-37.543 51.487z" fill="#434473"/><path d="m336.908 188.42c-46.607-5.739-101.312-.684-158.3 12.95-2.63-.844-35.152-21.653-55.048-56.148 53.666-59.884 156.43-101.42 251.626-12.924-2.546 16.97-30.921 52.985-38.278 56.122z" fill="#222047"/><path d="m284.022 245.634c-13.096 4.171-25.753 4.099-40.659 2.155-25.61-11.059-97.725-69.818-117.805-120.021 41.035-51.221 155.408-107.826 247.082-12.66-4.802 44.964-56.023 103.17-88.618 130.526z" fill="#e7dfd1"/><path d="m283.804 235.376c-11.072 2.742-20.741 2.837-33.071 1.675-22.895-9.887-71.262-55.369-90.688-96.841 34.05-39.507 132.708-63.08 197.931-11.856-6.092 39.313-45.033 82.565-74.172 107.022z" fill="#c9072b"/><path d="m197.625 193.651c-15.029-16.368-29.077-35.289-37.58-53.442 34.05-39.507 132.708-63.08 197.931-11.856-2.639 17.032-11.444 34.804-22.947 51.466-63.376-11.436-66.868 24.519-137.404 13.832z" fill="#e60e34"/><path d="m283.804 235.376c-11.072 2.742-20.741 2.837-33.071 1.675 12.61.162 24.015-.875 32.2-3.822 28.557-22.227 66.627-70.301 68.701-102.642-21.54-24.356-113.246-52.931-191.589 9.623 34.05-39.507 132.708-63.08 197.931-11.856-6.092 39.313-45.033 82.565-74.172 107.022z" fill="#330312" opacity=".7"/><path d="m304.657 165.932-15.657-21.32-20.698 18.469-19.845-19.707-15.306 16.78 20.16 16.304-17.257 15.397 12.077 10.629 20.761-13.425 16.599 13.425 13.134-9.291-14.247-14.148z" fill="#c9fff7"/></g><g><path d="m202.408 468.801c1.925 1.715 5.126 2.519 8.726 1.837 23.036-24.744 46.705-44.084 56.21-76.572-.612-20.961-21.803-54.241-55.49-70.702-36.2 70.149-16.379 127.957-9.446 145.437z" fill="#e7dfd1"/><path d="m196.532 451.1c4.225-2.298 11.25-8.312 13.887-14.624-5.507.713-13.331-.419-17.388-1.503.994 5.979 2.221 11.378 3.501 16.127z" fill="#9c1234"/><path d="m193.297 436.531c.831 4.723 1.801 9.067 2.819 12.996 3.74-1.926 9.697-6.253 12.011-11.79-4.865.63-11.307-.268-14.83-1.206z" fill="#ff245b"/><path d="m198.558 458.012c27.339-29.367 36.295-51.721 43.728-71.794 8.63-20.49-19.59-39.452-36.714-49.532-.028.065-.053.129-.081.193 17.266 14.116 39.418 31.298 34.652 47.516-4.862 16.546-17.981 46.192-41.585 73.617z" fill="#f5f1e6"/><path d="m221.6 459.696c19.419-19.965 37.68-38.066 45.744-65.63-.186-6.367-2.281-13.872-6.038-21.696-3.904 36.885-29.532 72.141-39.706 87.326z" fill="#c9b5a5"/><path d="m218.717 462.669c1.274-1.318 2.545-2.627 3.811-3.927 17.943-25.718 34.385-50.905 39.1-85.688-.228-.485-.45-.97-.691-1.457-4.701 37.288-22.939 63.543-42.22 91.072z" fill="#8f847b"/><path d="m205.905 335.915c-.233.537-.458 1.073-.685 1.608 16.822 8.965 37.846 28.472 37.974 38.096.235 17.955-27.318 65.691-44.386 81.018-.183.165-.358.315-.534.468.191.615.382 1.219.571 1.804.369-.309.742-.627 1.128-.974 17.557-15.766 45.212-63.511 44.965-82.34-.146-11.067-22.855-31.049-39.033-39.68z" fill="#a89a92"/><path d="m218.608 383.929c-19.881-13.193-8.421-37.173 1.375-56.119-2.623-1.584-5.328-3.078-8.128-4.446-16.979 32.901-21.633 63.088-21.074 87.672 2.282-14.01 3.632-22.677 6.281-27.654 2.384 2.056 5.856 4.088 11.355 5.527 4.923.548 7.256-.835 10.191-4.98z" fill="#baa497"/></g><g><path d="m314.927 465.33c11.838-9.935 74.358-84.543 22.846-146.533-12.607 10.992-28.856 33.162-44.091 71.593 6.112 23.574 9.895 52.967 12.362 74.165 2.117 1.471 5.391 1.885 8.883.775z" fill="#e7dfd1"/><path d="m306.044 464.555c.549.381 1.179.688 1.867.919 7.078-35.067 1.186-63.949-7.869-90.083-2.131 4.702-4.255 9.689-6.36 14.998 6.112 23.575 9.895 52.968 12.362 74.166z" fill="#c9b5a5"/><path d="m340.176 432.283c-3.462 1.013-7.363 1.085-11.335 1.051.095 4.143.158 9.058-.881 17.375 3.915-5.142 8.172-11.372 12.216-18.426z" fill="#9c1234"/><path d="m338.572 435.025c-2.612.377-5.39.406-8.203.382.075 3.271.13 7.026-.361 12.552 2.798-3.837 5.714-8.174 8.564-12.934z" fill="#ff245b"/><path d="m321.925 458.143c7.944-28.028 1.989-56.59-.605-71.026-1.022-5.692-2.051-9.918.219-15.643 6.166-15.558 21.045-34.698 25.734-38.939-.333-.591-.664-1.183-1.015-1.773-10.46 8.773-23.046 29.798-28.161 41.629-1.761 4.075-2.015 8.25.582 16.608 8.029 30.97 5.03 52.29 3.246 69.144z" fill="#f5f1e6"/><path d="m321.067 337.861c-1.762 2.482-3.55 5.156-5.354 8.022.525 9.695 2.34 23.108-2.039 34.153 6.583 10.928 15.46 8.262 26.764-1.536 3.757 11.817 3.512 24.379 2.429 30.107 2.943.654 5.541 1.085 7.854 1.335 3.138-8.457 5.507-17.492 6.542-26.84-9.508-14.578-25.132-32.187-36.196-45.241z" fill="#baa497"/><path d="m307.504 465.314c.268.107.547.199.835.279 5.845-30.001 3.24-58.924-8.04-90.766-.174.381-.347.761-.521 1.146 10.955 31.31 13.458 59.805 7.726 89.341z" fill="#8f847b"/><path d="m317.672 379.92c-1.567-7.273 13.785-33.297 29.018-48.403-.298-.513-.599-1.026-.911-1.538-15.797 15.469-31.541 42.293-29.813 50.309 7.678 35.628 8.773 52.337 5.096 77.731-.06.417-.049.778-.003 1.11.616-.693 1.257-1.431 1.921-2.213 3.476-24.884 2.284-41.764-5.308-76.996z" fill="#a89a92"/></g><g><path d="m168.557 363.737c-4.534-4.19-12.09-6.813-17.322-6.561-3.743 13.048 2.154 37.192 4.842 47.624 3.129 1.454 7.005 1.775 10.324 1.105-2.665-20.559-2.097-32.969 2.156-42.168z" fill="#434473"/><path d="m156.077 404.8c3.129 1.454 7.005 1.775 10.324 1.105-2.665-20.559-2.097-32.969 2.156-42.168-4.534-4.19-12.09-6.813-17.322-6.561-.96 3.347-1.283 7.426-1.191 11.814 4.033 7.004 9.05 11.764 11.487 13.842.075 7.586 1.644 16.307 3.1 21.12-2.571 1.07-4.111.853-8.554.848z" fill="#222047"/><path d="m179.865 368.656c-4.534-4.19-12.09-6.813-17.322-6.561-3.742 13.048 2.155 37.191 4.842 47.624 3.129 1.454 7.005 1.775 10.324 1.105-2.665-20.559-2.097-32.969 2.156-42.168z" fill="#434473"/><path d="m167.385 409.719c3.129 1.454 7.005 1.775 10.324 1.105-2.665-20.559-2.097-32.969 2.156-42.168-4.534-4.19-12.09-6.813-17.322-6.561-1.456 5.078-1.449 11.837-.743 18.813 4.145 3.836 9.051 5.149 11.038 6.843.075 7.586 1.644 16.307 3.1 21.12-2.569 1.07-4.109.852-8.553.848z" fill="#222047"/><path d="m191.256 371.495c-4.534-4.19-12.09-6.813-17.322-6.561-3.742 13.047 2.155 37.191 4.842 47.624 3.129 1.454 7.005 1.775 10.324 1.105-2.665-20.559-2.097-32.969 2.156-42.168z" fill="#434473"/><path d="m178.776 412.558c3.129 1.454 7.005 1.775 10.324 1.105-2.665-20.559-2.097-32.969 2.156-42.168-4.534-4.19-12.09-6.813-17.322-6.561-1.563 5.449-1.442 12.833-.578 20.346 4.32 2.784 9.117 3.812 10.875 5.31.075 7.586 1.644 16.307 3.1 21.12-2.571 1.069-4.111.852-8.555.848z" fill="#222047"/><path d="m186.931 367.848c5.303 7.876 12.513 14.803 23.492 20.448 4.407-.58 6.408-1.553 8.185-4.367-5.183-7.413-11.038-20.097-14.031-29.321-5.416 1.768-16.122 7.805-17.646 13.24z" fill="#434473"/><path d="m199.065 375.286c.851-2.632 3.606-6.365 9.838-9.447-1.714-3.923-3.217-7.815-4.326-11.231-5.416 1.768-16.122 7.805-17.646 13.24 5.303 7.876 12.513 14.803 23.492 20.448 4.407-.58 6.408-1.553 8.185-4.367-2.587 2.366-4.804 2.974-7.898 3.255-2.939-1.765-8.82-5.903-11.645-11.898z" fill="#222047"/><path d="m208.337 268.028c-12.59 9.749-55.749 49.167-61.63 87.4 3.523 12.65 20.695 27.412 31.106 28.804 14.29-17.878 25.564-19.732 33.724-19.688-.518-10.756.867-46.842 11.359-88.528 2.005-7.968-8.239-12.881-14.559-7.988z" fill="#e7dfd1"/><path d="m206.559 364.821c1.771-.224 3.431-.285 4.978-.277-.382-7.942.277-29.699 4.869-57.316-2.717 8.013-9.652 30.09-12.018 38.42-1.076 5.42.291 12.731 2.171 19.173z" fill="#d4bfae"/><path d="m194.512 347.176c6.283-12.308 16.284-40.214 15.182-65.033-.141 30.779-22.578 84.757-32.894 84.638-13.808-.16-24.735-15.94-26.522-24.965-.22.607-.428 1.215-.632 1.823 2.93 10.354 11.432 23.565 27.284 25.161 8.51-3.364 14.694-15.244 17.582-21.624z" fill="#f5f1e6"/><path d="m177.813 384.232c14.29-17.878 25.564-19.732 33.724-19.688-.035-.719-.06-1.558-.075-2.497-9.02-.892-18.385-.028-34.837 19.656-13.494-5.687-22.111-14.45-29.918-26.275 3.523 12.65 20.695 27.412 31.106 28.804z" fill="#b8a395"/><path d="m163.457 358.118c6.752 5.166 12.784 2.735 12.784 2.735l-23.009-17.976s3.473 10.075 10.225 15.241z" fill="#9c1234"/><path d="m164.513 358.251c5.427 4.153 10.277 2.199 10.277 2.199l-18.496-14.451s2.792 8.099 8.219 12.252z" fill="#ff245b"/><path d="m203.961 345.555c-1.382 6.311.654 14.561 2.152 19.328.301-.042.598-.08.893-.113-1.467-4.674-3.53-12.917-2.192-19.028 1.247-5.694 8.247-26.907 11.097-35.463.282-1.782.582-3.591.898-5.424l-.515 1.53c-.108.317-10.758 31.976-12.333 39.17z" fill="#8f847b"/><path d="m190.814 356c13.432-22.577 26.277-69.141 16.747-83.891-.518-.8-1.098-1.485-1.728-2.074-.429.353-.883.733-1.35 1.126.59.522 1.128 1.15 1.611 1.896 8.433 13.05-2.48 58.013-16.781 82.05-5.129 8.62-9.999 13.207-13.785 12.924-5.21-.398-13.867-5.108-19.646-13.052-2.284-3.14-4.599-7.461-5.69-12.917-.368 1.027-.721 2.054-1.045 3.084 1.286 4.463 3.314 8.099 5.324 10.861 6.153 8.458 15.184 13.328 20.925 13.766.156.012.312.018.468.018 5.561 0 11.176-7.445 14.95-13.791z" fill="#a89a92"/></g><path d="m286.468 276.913s-1.64 12.053-12.462 13.004c-11.238.988-16.706-10.12-16.706-10.12z" fill="#9c1234"/><path d="m281.165 278.531s-1.234 9.066-9.374 9.782c-8.453.743-12.566-7.612-12.566-7.612z" fill="#ff245b"/><g><path d="m362.764 357.608c4.664 8.998 5.79 21.37 4.055 42.028 3.346.519 7.203.023 10.264-1.57 2.214-10.543 7.017-34.928 2.69-47.793-5.238-.016-12.669 2.945-17.009 7.335z" fill="#434473"/><path d="m368.499 397.604c1.238-4.874 2.412-13.656 2.145-21.238 2.341-2.186 7.138-7.167 10.851-14.345-.106-4.388-.613-8.448-1.722-11.748-5.238-.016-12.669 2.945-17.009 7.335 4.664 8.998 5.79 21.37 4.055 42.028 3.346.519 7.203.023 10.264-1.57-4.439.205-5.968.491-8.584-.462z" fill="#222047"/><path d="m351.689 363.031c4.664 8.998 5.79 21.37 4.055 42.028 3.345.519 7.202.023 10.263-1.57 2.215-10.543 7.018-34.928 2.691-47.793-5.238-.016-12.669 2.945-17.009 7.335z" fill="#434473"/><path d="m357.423 403.027c1.238-4.874 2.412-13.656 2.145-21.238 1.91-1.783 6.753-3.315 10.721-7.335.391-7 .093-13.752-1.591-18.758-5.238-.016-12.669 2.945-17.009 7.335 4.664 8.998 5.79 21.37 4.055 42.028 3.345.519 7.202.023 10.263-1.57-4.438.205-5.967.492-8.584-.462z" fill="#222047"/><path d="m340.438 366.381c4.664 8.998 5.79 21.37 4.055 42.028 3.345.519 7.202.023 10.263-1.57 2.215-10.543 7.018-34.928 2.691-47.793-5.238-.016-12.669 2.945-17.009 7.335z" fill="#434473"/><path d="m346.172 406.377c1.238-4.874 2.412-13.656 2.145-21.238 1.688-1.576 6.435-2.819 10.625-5.794.524-7.544.312-14.926-1.495-20.299-5.238-.016-12.669 2.945-17.009 7.335 4.664 8.998 5.79 21.37 4.055 42.028 3.345.519 7.202.023 10.263-1.57-4.439.205-5.967.491-8.584-.462z" fill="#222047"/><path d="m344.595 362.543c-1.767-5.36-12.735-10.909-18.225-12.431-2.574 9.348-7.852 22.283-12.696 29.923 1.902 2.731 3.945 3.613 8.374 3.994 10.714-6.134 17.604-13.379 22.547-21.486z" fill="#434473"/><path d="m322.048 384.029c10.714-6.134 17.604-13.379 22.547-21.486-1.767-5.36-12.735-10.909-18.225-12.431-.953 3.463-2.279 7.418-3.815 11.414 6.364 2.797 9.285 6.402 10.253 8.993-2.552 6.117-8.24 10.515-11.097 12.411-3.103-.141-5.345-.649-8.037-2.895 1.902 2.731 3.945 3.613 8.374 3.994z" fill="#222047"/><path d="m384.218 348.322c-7.598-37.93-52.49-75.362-65.508-84.533-6.534-4.604-16.547.767-14.184 8.636 12.36 41.171 15.371 77.158 15.338 87.926 8.15-.412 19.497.932 34.578 18.148 10.337-1.86 26.827-17.381 29.776-30.177z" fill="#e7dfd1"/><path d="m326.155 341.152c-2.762-8.284-10.339-28.304-13.282-35.681 5.465 26.365 7.015 47.139 6.991 54.88 1.545-.078 3.207-.092 4.986.052 1.588-6.521 2.624-13.886 1.305-19.251z" fill="#d4bfae"/><path d="m380.038 334.885c-1.38 9.096-11.583 25.352-25.37 26.134-10.3.584-35.147-52.327-36.675-83.069.017 24.844 11.265 52.271 18.097 64.283 3.172 6.244 9.885 17.833 18.539 20.81 15.763-2.311 23.661-15.892 26.122-26.367-.232-.598-.467-1.195-.713-1.791z" fill="#f5f1e6"/><path d="m355.514 375.92c-17.322-18.922-26.717-19.363-35.687-18.065.027.938.039 1.777.037 2.496 8.15-.412 19.497.932 34.578 18.148 10.337-1.86 26.827-17.381 29.776-30.177-7.267 12.165-15.48 21.307-28.704 27.598z" fill="#b8a395"/><path d="m354.958 355.073s6.136 2.156 12.648-3.309c6.513-5.465 9.528-15.687 9.528-15.687z" fill="#9c1234"/><path d="m356.389 354.604s4.932 1.733 10.167-2.66 7.659-12.61 7.659-12.61z" fill="#ff245b"/><path d="m325.301 360.445c1.281-4.829 2.943-13.163 1.277-19.405-1.899-7.118-13.933-37.202-14.054-37.505l-.13-.324c.355 1.664.695 3.307 1.02 4.927 3.406 8.611 10.868 27.68 12.32 33.126 1.612 6.044-.078 14.372-1.332 19.107.296.021.596.045.899.074z" fill="#8f847b"/><path d="m381.317 338.161c-.37-1.015-.77-2.026-1.184-3.036-.843 5.5-2.962 9.923-5.102 13.163-5.415 8.196-13.85 13.292-19.038 13.924-3.746.464-8.843-3.91-14.354-12.291-15.369-23.367-28.297-67.793-20.462-81.209.449-.768.958-1.419 1.525-1.967-.484-.372-.955-.73-1.4-1.064-.604.617-1.153 1.328-1.634 2.151-8.856 15.163 6.075 61.101 20.511 83.049 3.988 6.065 9.8 13.11 15.274 13.11.25 0 .501-.015.751-.045 5.716-.697 14.518-5.968 20.283-14.695 1.884-2.85 3.746-6.573 4.83-11.09z" fill="#a89a92"/></g><g fill="#f05800"><path d="m347.01 228.648 34.432 21.702-63.253-23.477z"/><path d="m162.345 49.198-.636 27.492-8.333-44.817z"/><path d="m115.372 83.76-37.839-7.939 54.898 20.86-20.269-24.226z"/><path d="m411.516 176.975-14.275-7.799 37.226-25.777-61.131 27.999 15.15 6.837-53.19 28.269z"/></g></g></g></svg>